<svg xmlns="http://www.w3.org/2000/svg" xmlns:xlink="http://www.w3.org/1999/xlink" width="100" zoomAndPan="magnify"
    viewBox="0 0 75 74.999997" height="100" preserveAspectRatio="xMidYMid meet" version="1.2">
    <g id="1f9ebddf2a">
        <rect x="0" width="75" y="0" height="74.999997" style="fill:#000000;fill-opacity:1;stroke:none;" />
        <path style=" stroke:none;fill-rule:nonzero;fill:#fefefe;fill-opacity:1;"
            d="M 14.5 5.976562 L 15.007812 5.972656 L 16.152344 5.972656 C 16.808594 5.96875 17.464844 5.96875 18.121094 5.96875 L 19.53125 5.96875 C 20.808594 5.964844 22.085938 5.964844 23.363281 5.960938 L 25.753906 5.960938 C 27.960938 5.957031 30.167969 5.957031 32.378906 5.957031 L 33.234375 5.957031 L 34.097656 5.953125 L 34.527344 5.953125 C 36.835938 5.953125 39.140625 5.949219 41.449219 5.945312 C 43.816406 5.941406 46.183594 5.941406 48.554688 5.9375 C 49.882812 5.941406 51.214844 5.9375 52.542969 5.933594 C 53.792969 5.933594 55.042969 5.929688 56.296875 5.933594 C 56.753906 5.933594 57.214844 5.933594 57.675781 5.929688 C 58.300781 5.929688 58.925781 5.929688 59.554688 5.929688 L 60.105469 5.925781 C 60.878906 5.933594 61.429688 5.972656 62.15625 6.257812 C 62.695312 6.609375 63.015625 6.96875 63.375 7.5 C 63.59375 8.15625 63.585938 8.671875 63.582031 9.367188 L 63.582031 9.765625 C 63.582031 10.199219 63.582031 10.636719 63.582031 11.070312 L 63.578125 11.976562 C 63.578125 12.769531 63.578125 13.566406 63.574219 14.359375 C 63.574219 15.167969 63.574219 15.980469 63.570312 16.792969 C 63.570312 18.382812 63.566406 19.972656 63.5625 21.5625 L 63.171875 21.714844 L 62.664062 21.917969 L 62.15625 22.117188 C 61.085938 22.5625 60.296875 23.222656 59.570312 24.113281 C 58.875 25.089844 58.546875 26.136719 58.429688 27.324219 C 58.390625 28.148438 58.394531 28.976562 58.398438 29.800781 C 58.394531 30.125 58.394531 30.445312 58.390625 30.765625 C 58.386719 31.621094 58.386719 32.476562 58.386719 33.332031 C 58.386719 34.136719 58.382812 34.941406 58.375 35.742188 C 58.367188 38.089844 58.363281 40.4375 58.359375 42.785156 L 58.3125 58.6875 L 16.6875 58.6875 C 16.628906 42.867188 16.628906 42.867188 16.613281 37.875 C 16.609375 36.398438 16.609375 36.398438 16.601562 34.917969 C 16.597656 34.257812 16.59375 33.601562 16.59375 32.945312 C 16.59375 32.105469 16.589844 31.261719 16.582031 30.421875 C 16.582031 30.117188 16.582031 29.808594 16.582031 29.5 C 16.589844 27.164062 16.589844 27.164062 15.9375 24.9375 C 15.203125 23.738281 14.332031 22.859375 13.101562 22.171875 C 12.664062 21.980469 12.273438 21.855469 11.8125 21.75 C 11.777344 20.0625 11.75 18.371094 11.71875 16.683594 C 11.707031 15.898438 11.691406 15.117188 11.675781 14.332031 C 11.660156 13.574219 11.648438 12.816406 11.636719 12.058594 C 11.632812 11.769531 11.625 11.484375 11.621094 11.195312 C 11.613281 10.789062 11.605469 10.382812 11.597656 9.980469 C 11.59375 9.75 11.589844 9.519531 11.585938 9.28125 C 11.628906 8.574219 11.773438 7.980469 12 7.3125 C 12.261719 6.945312 12.261719 6.945312 12.550781 6.679688 L 12.835938 6.40625 C 13.367188 6.003906 13.863281 5.976562 14.5 5.976562 " />
        <path style=" stroke:none;fill-rule:nonzero;fill:#fefefe;fill-opacity:1;"
            d="M 0 0 L 75 0 L 75 75 L 0 75 Z M 11.625 4.628906 C 10.914062 5.167969 10.328125 5.753906 9.9375 6.5625 C 9.628906 7.496094 9.515625 8.296875 9.519531 9.28125 L 9.519531 9.683594 C 9.519531 10.121094 9.523438 10.558594 9.527344 10.996094 L 9.527344 11.914062 C 9.527344 12.710938 9.53125 13.511719 9.535156 14.308594 C 9.539062 15.128906 9.542969 15.945312 9.542969 16.761719 C 9.546875 18.363281 9.554688 19.960938 9.5625 21.5625 L 9.210938 21.636719 L 8.75 21.734375 L 8.292969 21.828125 C 7.421875 22.054688 6.824219 22.640625 6.1875 23.25 C 5.363281 24.148438 4.847656 25.074219 4.5 26.25 C 4.449219 26.761719 4.421875 27.226562 4.425781 27.734375 L 4.425781 28.164062 C 4.421875 28.632812 4.421875 29.101562 4.425781 29.570312 L 4.421875 30.585938 C 4.417969 31.503906 4.417969 32.421875 4.417969 33.339844 C 4.417969 34.105469 4.417969 34.871094 4.417969 35.640625 C 4.414062 37.449219 4.414062 39.261719 4.417969 41.070312 C 4.417969 42.933594 4.414062 44.796875 4.410156 46.664062 C 4.40625 48.265625 4.40625 49.867188 4.40625 51.472656 C 4.40625 52.429688 4.40625 53.386719 4.402344 54.339844 C 4.402344 55.242188 4.402344 56.140625 4.40625 57.039062 C 4.40625 57.371094 4.40625 57.699219 4.402344 58.027344 C 4.394531 59.789062 4.429688 61.390625 5.25 63 C 5.8125 63.851562 6.488281 64.632812 7.394531 65.121094 C 7.542969 65.1875 7.6875 65.253906 7.839844 65.320312 C 8.265625 65.527344 8.265625 65.527344 8.625 65.8125 C 8.875 66.359375 9.027344 66.90625 9.183594 67.484375 C 9.53125 68.535156 10.199219 69.308594 11.011719 70.042969 C 12.035156 70.828125 13.152344 71.222656 14.421875 71.398438 C 15.167969 71.472656 15.914062 71.464844 16.664062 71.464844 L 17.21875 71.464844 C 17.832031 71.46875 18.445312 71.46875 19.054688 71.46875 L 20.375 71.46875 C 21.570312 71.472656 22.765625 71.472656 23.957031 71.476562 L 26.199219 71.476562 C 28.265625 71.480469 30.335938 71.480469 32.40625 71.480469 L 33.207031 71.480469 L 34.015625 71.484375 L 34.417969 71.484375 C 36.574219 71.484375 38.734375 71.488281 40.890625 71.492188 C 43.109375 71.496094 45.328125 71.496094 47.546875 71.5 C 48.792969 71.496094 50.035156 71.5 51.28125 71.503906 C 52.453125 71.503906 53.621094 71.507812 54.792969 71.503906 C 55.222656 71.503906 55.652344 71.503906 56.082031 71.507812 C 59.585938 71.570312 59.585938 71.570312 62.871094 70.464844 C 63.808594 69.8125 64.570312 69 65.117188 67.992188 C 65.480469 67.203125 65.480469 67.203125 65.671875 66.359375 L 65.8125 66 C 66.285156 65.714844 66.285156 65.714844 66.878906 65.449219 C 67.925781 64.953125 68.71875 64.539062 69.441406 63.613281 C 70.089844 62.664062 70.46875 61.6875 70.6875 60.5625 C 70.769531 59.46875 70.765625 58.378906 70.761719 57.28125 C 70.761719 56.953125 70.761719 56.621094 70.761719 56.292969 C 70.765625 55.402344 70.765625 54.511719 70.761719 53.617188 C 70.761719 52.683594 70.761719 51.75 70.765625 50.8125 C 70.765625 49.242188 70.765625 47.675781 70.761719 46.105469 C 70.757812 44.292969 70.757812 42.480469 70.761719 40.667969 C 70.765625 39.109375 70.765625 37.550781 70.761719 35.992188 C 70.761719 35.0625 70.761719 34.132812 70.765625 33.203125 C 70.765625 32.328125 70.765625 31.457031 70.761719 30.582031 C 70.761719 30.261719 70.761719 29.941406 70.761719 29.621094 C 70.789062 27.222656 70.789062 27.222656 70.125 24.9375 C 69.40625 23.757812 68.480469 22.777344 67.285156 22.078125 C 66.582031 21.691406 66.582031 21.691406 65.8125 21.5625 L 65.816406 21.058594 C 65.828125 19.492188 65.835938 17.925781 65.839844 16.359375 C 65.84375 15.554688 65.847656 14.75 65.855469 13.945312 C 65.859375 13.164062 65.863281 12.386719 65.867188 11.609375 C 65.867188 11.3125 65.867188 11.015625 65.871094 10.722656 C 65.890625 9.015625 65.859375 7.644531 65 6.121094 C 64.332031 5.222656 63.628906 4.625 62.625 4.125 C 61.1875 3.644531 59.5625 3.722656 58.058594 3.726562 L 57.503906 3.722656 C 56.894531 3.722656 56.285156 3.722656 55.671875 3.722656 L 54.355469 3.722656 C 53.164062 3.71875 51.972656 3.71875 50.785156 3.71875 C 49.914062 3.71875 49.046875 3.71875 48.175781 3.71875 C 45.835938 3.714844 43.496094 3.714844 41.152344 3.714844 L 40.351562 3.714844 C 38.199219 3.714844 36.046875 3.714844 33.894531 3.710938 C 31.679688 3.707031 29.464844 3.707031 27.253906 3.707031 C 26.011719 3.707031 24.769531 3.707031 23.527344 3.703125 C 22.359375 3.703125 21.195312 3.703125 20.027344 3.703125 C 19.597656 3.703125 19.171875 3.703125 18.746094 3.703125 C 15.058594 3.546875 15.058594 3.546875 11.625 4.628906 " />
        <path style=" stroke:none;fill-rule:nonzero;fill:#fefefe;fill-opacity:1;"
            d="M 15.605469 61.050781 L 16.1875 61.046875 C 16.835938 61.042969 17.480469 61.042969 18.125 61.042969 C 18.589844 61.042969 19.050781 61.039062 19.515625 61.039062 C 20.640625 61.035156 21.769531 61.03125 22.894531 61.03125 C 23.8125 61.03125 24.726562 61.03125 25.644531 61.027344 C 28.242188 61.023438 30.84375 61.019531 33.441406 61.019531 L 34.292969 61.019531 C 36.5625 61.019531 38.835938 61.015625 41.109375 61.007812 C 43.441406 61 45.777344 60.996094 48.113281 60.996094 C 49.421875 60.996094 50.734375 60.996094 52.042969 60.988281 C 53.273438 60.984375 54.507812 60.984375 55.738281 60.988281 C 56.191406 60.988281 56.644531 60.988281 57.09375 60.984375 C 57.714844 60.980469 58.332031 60.980469 58.949219 60.984375 L 59.488281 60.976562 C 60.214844 60.988281 60.761719 61.039062 61.417969 61.363281 C 62.296875 61.929688 62.882812 62.449219 63.375 63.375 C 63.683594 64.300781 63.648438 65.222656 63.5625 66.1875 C 63.359375 66.925781 63.027344 67.457031 62.511719 68.015625 C 61.835938 68.636719 61.269531 68.949219 60.375 69.1875 C 59.75 69.242188 59.125 69.238281 58.5 69.234375 C 58.308594 69.238281 58.121094 69.238281 57.929688 69.238281 C 57.296875 69.242188 56.667969 69.238281 56.035156 69.238281 C 55.585938 69.238281 55.132812 69.242188 54.679688 69.242188 C 53.578125 69.242188 52.480469 69.246094 51.378906 69.242188 C 50.484375 69.242188 49.589844 69.246094 48.695312 69.246094 L 47.53125 69.246094 C 45.105469 69.246094 42.679688 69.246094 40.25 69.246094 C 38.03125 69.246094 35.8125 69.246094 33.59375 69.25 C 31.3125 69.253906 29.035156 69.257812 26.753906 69.253906 C 25.476562 69.253906 24.195312 69.257812 22.917969 69.257812 C 21.714844 69.261719 20.511719 69.261719 19.308594 69.257812 C 18.867188 69.257812 18.425781 69.257812 17.984375 69.257812 C 17.378906 69.261719 16.777344 69.261719 16.175781 69.257812 L 15.644531 69.261719 C 14.550781 69.253906 13.75 69.074219 12.75 68.625 C 12.109375 68.234375 11.75 67.832031 11.390625 67.183594 C 11.019531 66.363281 10.839844 65.589844 10.875 64.6875 C 11.039062 63.753906 11.375 63.011719 11.964844 62.273438 C 12.972656 61.101562 14.160156 61.042969 15.605469 61.050781 M 66.183594 23.949219 C 67.054688 24.394531 67.695312 25.074219 68.25 25.875 C 68.46875 26.53125 68.464844 27.121094 68.464844 27.804688 L 68.46875 28.230469 C 68.46875 28.703125 68.46875 29.171875 68.46875 29.644531 L 68.472656 30.65625 C 68.476562 31.765625 68.480469 32.875 68.480469 33.988281 L 68.484375 35.132812 C 68.488281 36.929688 68.492188 38.722656 68.492188 40.519531 C 68.492188 42.589844 68.5 44.660156 68.507812 46.734375 C 68.511719 48.335938 68.515625 49.9375 68.515625 51.539062 C 68.515625 52.492188 68.519531 53.449219 68.523438 54.40625 C 68.527344 55.308594 68.527344 56.207031 68.527344 57.105469 C 68.527344 57.4375 68.527344 57.765625 68.53125 58.097656 C 68.550781 60.898438 68.550781 60.898438 68.089844 61.859375 C 67.621094 62.53125 67.242188 62.917969 66.5625 63.375 C 66.253906 63.449219 65.941406 63.511719 65.625 63.5625 L 65.40625 63.144531 C 64.421875 61.296875 64.421875 61.296875 62.847656 59.964844 C 62.109375 59.519531 61.394531 59.292969 60.5625 59.0625 C 60.542969 54.859375 60.53125 50.65625 60.523438 46.453125 C 60.519531 44.5 60.515625 42.546875 60.507812 40.597656 C 60.5 38.894531 60.492188 37.195312 60.492188 35.492188 C 60.492188 34.59375 60.488281 33.691406 60.484375 32.789062 C 60.476562 31.941406 60.476562 31.09375 60.476562 30.246094 C 60.476562 29.933594 60.476562 29.625 60.472656 29.3125 C 60.449219 26.675781 60.449219 26.675781 60.921875 25.703125 C 61.417969 24.972656 61.886719 24.476562 62.625 24 C 63.78125 23.5 65 23.519531 66.183594 23.949219 M 12.183594 23.949219 C 13.054688 24.394531 13.695312 25.074219 14.25 25.875 C 14.46875 26.53125 14.460938 27.042969 14.460938 27.738281 L 14.460938 28.140625 C 14.460938 28.585938 14.460938 29.03125 14.457031 29.480469 L 14.457031 30.4375 C 14.457031 31.308594 14.457031 32.175781 14.457031 33.042969 C 14.457031 33.953125 14.453125 34.859375 14.453125 35.765625 C 14.453125 37.488281 14.453125 39.207031 14.449219 40.925781 C 14.449219 42.882812 14.449219 44.839844 14.445312 46.796875 C 14.445312 50.824219 14.441406 54.847656 14.4375 58.875 L 13.972656 59.019531 L 13.363281 59.21875 L 12.761719 59.410156 C 11.773438 59.78125 11.058594 60.328125 10.367188 61.117188 C 9.8125 61.828125 9.371094 62.550781 9 63.375 C 8.683594 63.339844 8.683594 63.339844 8.25 63.1875 C 7.613281 62.628906 7.136719 62.066406 6.75 61.3125 C 6.515625 60.617188 6.535156 59.917969 6.535156 59.195312 L 6.53125 58.773438 C 6.53125 58.3125 6.53125 57.847656 6.53125 57.386719 L 6.527344 56.390625 C 6.523438 55.300781 6.519531 54.207031 6.519531 53.117188 L 6.515625 51.992188 C 6.511719 50.226562 6.507812 48.460938 6.507812 46.699219 C 6.507812 44.660156 6.5 42.625 6.492188 40.589844 C 6.488281 39.015625 6.484375 37.441406 6.484375 35.867188 C 6.484375 34.925781 6.480469 33.984375 6.476562 33.046875 C 6.472656 32.160156 6.472656 31.277344 6.472656 30.390625 C 6.472656 30.066406 6.472656 29.742188 6.46875 29.417969 C 6.449219 26.667969 6.449219 26.667969 6.921875 25.695312 C 7.417969 24.96875 7.890625 24.476562 8.625 24 C 9.78125 23.5 11 23.519531 12.183594 23.949219 " />
    </g>
</svg>