<svg xmlns="http://www.w3.org/2000/svg" xmlns:xlink="http://www.w3.org/1999/xlink" width="160" zoomAndPan="magnify" viewBox="0 0 120 74.999997" height="100" preserveAspectRatio="xMidYMid meet" version="1.2"><defs><clipPath id="0ef094e3c8"><path d="M 1.378906 0 L 118.375 0 L 118.375 74.996094 L 1.378906 74.996094 Z M 1.378906 0 "/></clipPath></defs><g id="9bd9f41311"><g clip-rule="nonzero" clip-path="url(#0ef094e3c8)"><path style=" stroke:none;fill-rule:nonzero;fill:#000000;fill-opacity:1;" d="M 1.339844 65.90625 L 1.335938 65.144531 C 1.335938 64.300781 1.335938 63.457031 1.335938 62.613281 L 1.332031 60.796875 C 1.328125 59.15625 1.324219 57.511719 1.324219 55.867188 L 1.320312 52.785156 C 1.316406 49.941406 1.316406 47.09375 1.3125 44.25 L 1.3125 41.480469 C 1.3125 38.511719 1.308594 35.542969 1.300781 32.574219 C 1.296875 29.523438 1.292969 26.46875 1.292969 23.417969 C 1.292969 21.707031 1.289062 19.996094 1.285156 18.28125 C 1.28125 16.671875 1.28125 15.058594 1.28125 13.449219 C 1.28125 12.859375 1.28125 12.269531 1.277344 11.679688 C 1.277344 10.871094 1.277344 10.0625 1.28125 9.253906 L 1.273438 8.550781 C 1.289062 6.714844 1.59375 4.953125 2.523438 3.34375 C 3.257812 2.25 4.109375 1.496094 5.21875 0.792969 C 7.542969 -0.175781 9.960938 -0.078125 12.425781 -0.0703125 L 13.710938 -0.0742188 C 14.878906 -0.0742188 16.050781 -0.0742188 17.21875 -0.0742188 C 18.484375 -0.0742188 19.746094 -0.078125 21.011719 -0.078125 C 23.484375 -0.0820312 25.960938 -0.0820312 28.433594 -0.0820312 C 31.316406 -0.0820312 34.199219 -0.0820312 37.078125 -0.0859375 C 42.535156 -0.0859375 47.988281 -0.0859375 53.441406 -0.0859375 C 58.429688 -0.0820312 63.417969 -0.0859375 68.40625 -0.0898438 C 73.527344 -0.0976562 78.652344 -0.0976562 83.777344 -0.0976562 C 86.652344 -0.0976562 89.527344 -0.0976562 92.402344 -0.101562 C 94.851562 -0.105469 97.300781 -0.105469 99.75 -0.101562 C 100.996094 -0.101562 102.246094 -0.101562 103.492188 -0.101562 C 104.636719 -0.105469 105.78125 -0.105469 106.925781 -0.101562 C 107.339844 -0.101562 107.75 -0.101562 108.164062 -0.105469 C 110.5625 -0.113281 112.789062 -0.0546875 114.960938 1.066406 C 116.175781 1.785156 116.816406 2.84375 117.515625 4.039062 C 118.320312 5.761719 118.453125 7.277344 118.445312 9.152344 L 118.449219 9.914062 C 118.453125 10.757812 118.449219 11.597656 118.449219 12.441406 L 118.453125 14.253906 C 118.457031 15.894531 118.457031 17.535156 118.457031 19.179688 C 118.457031 20.550781 118.457031 21.917969 118.457031 23.289062 C 118.460938 26.710938 118.460938 30.128906 118.460938 33.550781 C 118.457031 36.515625 118.460938 39.480469 118.464844 42.449219 C 118.472656 45.496094 118.472656 48.546875 118.472656 51.59375 C 118.472656 53.304688 118.472656 55.015625 118.476562 56.726562 C 118.480469 58.335938 118.480469 59.945312 118.476562 61.550781 C 118.476562 62.140625 118.476562 62.730469 118.476562 63.320312 C 118.480469 64.128906 118.480469 64.933594 118.476562 65.742188 L 118.480469 66.441406 C 118.464844 68.277344 118.160156 70.039062 117.230469 71.648438 C 116.480469 72.761719 115.625 73.503906 114.484375 74.199219 C 113.074219 74.839844 111.742188 75.058594 110.203125 75.0625 L 109.667969 75.0625 C 109.074219 75.066406 108.480469 75.066406 107.890625 75.0625 L 106.597656 75.066406 C 105.417969 75.070312 104.238281 75.070312 103.058594 75.070312 C 101.785156 75.070312 100.511719 75.074219 99.238281 75.074219 C 96.746094 75.078125 94.25 75.082031 91.757812 75.082031 C 89.730469 75.082031 87.703125 75.082031 85.675781 75.085938 C 79.925781 75.089844 74.175781 75.089844 68.429688 75.089844 L 66.550781 75.089844 C 61.519531 75.089844 56.492188 75.097656 51.464844 75.105469 C 46.300781 75.113281 41.136719 75.113281 35.972656 75.113281 C 33.074219 75.113281 30.175781 75.117188 27.277344 75.121094 C 24.808594 75.125 22.339844 75.128906 19.871094 75.125 C 18.613281 75.121094 17.355469 75.121094 16.097656 75.125 C 14.941406 75.128906 13.789062 75.128906 12.636719 75.125 C 12.21875 75.125 11.804688 75.125 11.386719 75.128906 C 9.035156 75.144531 6.941406 75.019531 4.800781 73.9375 C 3.824219 73.316406 3.171875 72.703125 2.5625 71.710938 C 1.535156 69.738281 1.335938 68.101562 1.339844 65.90625 M 5.03125 69.835938 C 5.609375 70.523438 6.171875 71.050781 6.910156 71.5625 C 7.804688 71.859375 8.480469 71.859375 9.425781 71.859375 L 9.960938 71.863281 C 10.554688 71.863281 11.152344 71.863281 11.746094 71.863281 L 13.039062 71.863281 C 14.222656 71.867188 15.40625 71.867188 16.59375 71.867188 C 17.867188 71.867188 19.144531 71.871094 20.421875 71.871094 C 23.214844 71.875 26.007812 71.878906 28.800781 71.878906 C 30.542969 71.878906 32.289062 71.878906 34.03125 71.882812 C 38.855469 71.882812 43.679688 71.886719 48.5 71.886719 L 53.199219 71.886719 C 58.246094 71.890625 63.289062 71.894531 68.335938 71.902344 C 73.511719 71.90625 78.6875 71.910156 83.863281 71.910156 C 86.769531 71.910156 89.675781 71.914062 92.585938 71.917969 C 95.058594 71.921875 97.535156 71.921875 100.011719 71.921875 C 101.273438 71.917969 102.539062 71.917969 103.800781 71.921875 C 104.957031 71.925781 106.113281 71.925781 107.269531 71.921875 C 107.6875 71.921875 108.105469 71.921875 108.523438 71.925781 C 109.09375 71.929688 109.660156 71.925781 110.230469 71.921875 C 110.546875 71.921875 110.863281 71.921875 111.1875 71.925781 C 112.160156 71.8125 112.796875 71.527344 113.632812 71.03125 C 114.382812 70.347656 114.890625 69.625 115.214844 68.65625 C 115.238281 68.300781 115.25 67.945312 115.25 67.589844 L 115.253906 66.929688 L 115.25 66.207031 L 115.253906 65.4375 C 115.257812 64.582031 115.257812 63.726562 115.257812 62.871094 L 115.261719 61.035156 C 115.265625 59.371094 115.265625 57.707031 115.265625 56.042969 C 115.269531 55.003906 115.269531 53.964844 115.269531 52.925781 C 115.273438 50.050781 115.277344 47.171875 115.277344 44.296875 L 115.277344 41.496094 C 115.28125 38.488281 115.285156 35.484375 115.289062 32.476562 C 115.296875 29.390625 115.300781 26.304688 115.300781 23.21875 C 115.300781 21.488281 115.300781 19.753906 115.304688 18.019531 C 115.308594 16.390625 115.3125 14.761719 115.308594 13.132812 C 115.308594 12.535156 115.308594 11.933594 115.3125 11.335938 C 115.316406 10.519531 115.3125 9.703125 115.3125 8.886719 L 115.316406 8.167969 C 115.308594 7.109375 115.242188 6.40625 114.839844 5.410156 C 114.269531 4.503906 113.707031 4.0625 112.84375 3.429688 C 111.949219 3.132812 111.273438 3.132812 110.328125 3.132812 L 109.792969 3.132812 C 109.199219 3.128906 108.601562 3.128906 108.007812 3.128906 L 106.714844 3.128906 C 105.53125 3.125 104.347656 3.125 103.160156 3.125 C 101.886719 3.125 100.609375 3.121094 99.332031 3.121094 C 96.539062 3.117188 93.746094 3.117188 90.953125 3.113281 C 89.210938 3.113281 87.464844 3.113281 85.722656 3.113281 C 80.898438 3.109375 76.074219 3.105469 71.253906 3.105469 L 66.554688 3.105469 C 61.507812 3.101562 56.464844 3.097656 51.417969 3.09375 C 46.242188 3.085938 41.066406 3.082031 35.890625 3.082031 C 32.984375 3.082031 30.078125 3.082031 27.167969 3.074219 C 24.695312 3.070312 22.21875 3.070312 19.742188 3.074219 C 18.480469 3.074219 17.214844 3.074219 15.953125 3.070312 C 14.796875 3.066406 13.640625 3.066406 12.484375 3.070312 C 12.066406 3.070312 11.648438 3.070312 11.230469 3.066406 C 10.660156 3.0625 10.09375 3.066406 9.523438 3.070312 C 9.207031 3.070312 8.890625 3.070312 8.566406 3.070312 C 7.59375 3.179688 6.957031 3.464844 6.121094 3.960938 C 5.46875 4.570312 4.941406 5.269531 4.539062 6.070312 C 4.511719 6.886719 4.5 7.695312 4.5 8.511719 L 4.496094 9.285156 C 4.496094 10.148438 4.492188 11.011719 4.492188 11.875 L 4.488281 13.726562 C 4.484375 15.40625 4.480469 17.085938 4.476562 18.765625 C 4.476562 19.8125 4.476562 20.859375 4.472656 21.910156 C 4.46875 25.566406 4.464844 29.222656 4.460938 32.875 L 4.460938 33.445312 C 4.457031 36.476562 4.453125 39.511719 4.445312 42.542969 C 4.433594 45.65625 4.429688 48.769531 4.429688 51.882812 C 4.429688 53.632812 4.425781 55.382812 4.417969 57.128906 C 4.414062 58.773438 4.414062 60.417969 4.414062 62.0625 C 4.414062 62.667969 4.414062 63.273438 4.410156 63.875 C 4.40625 64.699219 4.40625 65.523438 4.410156 66.347656 L 4.402344 67.074219 C 4.414062 68.203125 4.484375 68.816406 5.03125 69.835938 "/></g><path style=" stroke:none;fill-rule:nonzero;fill:#010101;fill-opacity:1;" d="M 88.269531 57.542969 C 88.265625 57.363281 88.265625 57.1875 88.265625 57 C 88.261719 56.40625 88.261719 55.8125 88.265625 55.21875 L 88.261719 53.933594 C 88.257812 52.773438 88.257812 51.613281 88.257812 50.453125 C 88.257812 49.484375 88.257812 48.511719 88.253906 47.542969 C 88.25 45.253906 88.25 42.964844 88.253906 40.675781 C 88.253906 38.320312 88.25 35.960938 88.246094 33.601562 C 88.242188 31.574219 88.238281 29.546875 88.242188 27.519531 C 88.242188 26.3125 88.242188 25.101562 88.238281 23.890625 C 88.234375 22.753906 88.234375 21.617188 88.238281 20.476562 C 88.238281 20.0625 88.238281 19.644531 88.234375 19.230469 C 88.214844 15.058594 88.214844 15.058594 89.125 13.203125 C 89.628906 12.429688 89.628906 12.429688 90.199219 11.800781 L 90.75 11.160156 C 91.800781 10.320312 92.835938 9.851562 94.132812 9.503906 C 95.285156 9.363281 96.417969 9.355469 97.574219 9.375 L 98.46875 9.359375 C 100.105469 9.367188 101.390625 9.53125 102.859375 10.261719 C 104.101562 11.007812 105.082031 11.851562 105.828125 13.101562 C 106.460938 14.417969 106.550781 15.390625 106.554688 16.855469 L 106.558594 17.40625 C 106.558594 18.011719 106.5625 18.621094 106.5625 19.230469 L 106.566406 20.539062 C 106.570312 21.722656 106.570312 22.90625 106.570312 24.089844 C 106.574219 24.832031 106.574219 25.570312 106.574219 26.3125 C 106.578125 28.628906 106.582031 30.949219 106.582031 33.265625 C 106.582031 35.941406 106.585938 38.613281 106.59375 41.289062 C 106.601562 43.355469 106.605469 45.421875 106.605469 47.492188 C 106.605469 48.726562 106.605469 49.960938 106.609375 51.195312 C 106.613281 52.355469 106.617188 53.519531 106.613281 54.679688 C 106.613281 55.105469 106.613281 55.53125 106.617188 55.957031 C 106.628906 58.121094 106.601562 60.039062 105.726562 62.054688 C 105.101562 63.066406 104.328125 63.882812 103.324219 64.523438 C 101.378906 65.519531 99.6875 65.554688 97.527344 65.570312 L 96.570312 65.59375 C 94.847656 65.605469 93.503906 65.5 91.960938 64.703125 C 90.675781 63.945312 89.945312 63.113281 89.15625 61.867188 C 88.472656 60.457031 88.269531 59.097656 88.269531 57.542969 M 91.8125 60.304688 C 92.417969 61.1875 92.996094 61.695312 93.871094 62.320312 C 95.050781 62.703125 96.265625 62.652344 97.492188 62.664062 L 98.1875 62.6875 C 99.605469 62.703125 100.621094 62.503906 101.875 61.832031 C 102.59375 61.320312 102.960938 60.71875 103.355469 59.941406 C 103.621094 58.910156 103.652344 57.933594 103.65625 56.871094 L 103.65625 56.347656 C 103.660156 55.773438 103.660156 55.199219 103.65625 54.621094 L 103.660156 53.382812 C 103.664062 52.261719 103.664062 51.140625 103.664062 50.015625 L 103.664062 47.914062 C 103.667969 45.464844 103.667969 43.019531 103.667969 40.570312 C 103.667969 38.292969 103.671875 36.011719 103.675781 33.734375 C 103.679688 31.773438 103.679688 29.816406 103.679688 27.859375 C 103.679688 26.6875 103.679688 25.519531 103.683594 24.351562 C 103.6875 23.25 103.6875 22.152344 103.683594 21.050781 C 103.683594 20.648438 103.683594 20.246094 103.6875 19.84375 C 103.6875 19.292969 103.6875 18.738281 103.683594 18.1875 L 103.683594 17.253906 C 103.613281 16.277344 103.414062 15.449219 103.09375 14.523438 C 102.339844 13.574219 101.589844 13.035156 100.472656 12.574219 C 99.472656 12.269531 98.480469 12.285156 97.445312 12.292969 L 96.800781 12.277344 C 95.433594 12.28125 94.453125 12.523438 93.25 13.171875 C 92.597656 13.613281 92.183594 14.125 91.761719 14.785156 C 91.472656 15.652344 91.460938 16.296875 91.453125 17.207031 L 91.445312 18.242188 L 91.441406 19.378906 L 91.429688 20.574219 C 91.421875 21.660156 91.414062 22.746094 91.410156 23.828125 C 91.40625 24.734375 91.398438 25.640625 91.390625 26.546875 C 91.378906 28.6875 91.363281 30.828125 91.351562 32.964844 C 91.339844 35.167969 91.324219 37.371094 91.308594 39.574219 C 91.292969 41.46875 91.28125 43.363281 91.269531 45.257812 C 91.261719 46.386719 91.253906 47.515625 91.246094 48.644531 C 91.238281 49.710938 91.234375 50.773438 91.226562 51.839844 C 91.226562 52.230469 91.222656 52.617188 91.21875 53.007812 C 91.101562 56.710938 91.101562 56.710938 91.8125 60.304688 "/></g></svg>