<svg xmlns="http://www.w3.org/2000/svg" xmlns:xlink="http://www.w3.org/1999/xlink" width="100" zoomAndPan="magnify" viewBox="0 0 75 119.999999" height="160" preserveAspectRatio="xMidYMid meet" version="1.2"><defs><clipPath id="e27242c324"><path d="M 0 1.375 L 75 1.375 L 75 118.375 L 0 118.375 Z M 0 1.375 "/></clipPath></defs><g id="dbdabb8162"><g clip-rule="nonzero" clip-path="url(#e27242c324)"><path style=" stroke:none;fill-rule:nonzero;fill:#000000;fill-opacity:1;" d="M 9.089844 1.335938 L 9.851562 1.332031 C 10.695312 1.332031 11.539062 1.332031 12.382812 1.332031 L 14.199219 1.328125 C 15.839844 1.324219 17.484375 1.320312 19.128906 1.320312 L 22.210938 1.316406 C 25.054688 1.3125 27.902344 1.3125 30.746094 1.308594 L 33.515625 1.308594 C 36.484375 1.308594 39.453125 1.304688 42.421875 1.296875 C 45.472656 1.292969 48.527344 1.289062 51.578125 1.289062 C 53.289062 1.289062 55 1.285156 56.714844 1.28125 C 58.324219 1.277344 59.9375 1.277344 61.546875 1.277344 C 62.136719 1.277344 62.726562 1.277344 63.316406 1.277344 C 64.125 1.273438 64.933594 1.273438 65.742188 1.277344 L 66.445312 1.269531 C 68.28125 1.285156 70.042969 1.589844 71.652344 2.519531 C 72.746094 3.253906 73.5 4.105469 74.203125 5.214844 C 75.171875 7.539062 75.074219 9.957031 75.066406 12.421875 L 75.070312 13.707031 C 75.074219 14.875 75.070312 16.046875 75.070312 17.214844 C 75.070312 18.480469 75.074219 19.742188 75.074219 21.007812 C 75.078125 23.480469 75.078125 25.957031 75.078125 28.429688 C 75.078125 31.3125 75.078125 34.195312 75.082031 37.074219 C 75.082031 42.53125 75.082031 47.984375 75.082031 53.4375 C 75.078125 58.425781 75.082031 63.414062 75.085938 68.402344 C 75.09375 73.527344 75.09375 78.648438 75.09375 83.773438 C 75.09375 86.648438 75.09375 89.523438 75.097656 92.398438 C 75.101562 94.847656 75.101562 97.296875 75.097656 99.746094 C 75.097656 100.992188 75.097656 102.242188 75.097656 103.492188 C 75.101562 104.632812 75.101562 105.777344 75.097656 106.921875 C 75.097656 107.335938 75.097656 107.746094 75.101562 108.160156 C 75.109375 110.558594 75.050781 112.785156 73.929688 114.957031 C 73.210938 116.171875 72.152344 116.8125 70.957031 117.511719 C 69.234375 118.316406 67.71875 118.449219 65.847656 118.441406 L 65.082031 118.445312 C 64.238281 118.449219 63.398438 118.445312 62.554688 118.445312 L 60.742188 118.449219 C 59.101562 118.453125 57.460938 118.453125 55.816406 118.453125 C 54.449219 118.453125 53.078125 118.453125 51.707031 118.453125 C 48.285156 118.457031 44.867188 118.457031 41.445312 118.457031 C 38.480469 118.453125 35.515625 118.457031 32.550781 118.460938 C 29.5 118.46875 26.449219 118.46875 23.402344 118.46875 C 21.691406 118.46875 19.980469 118.46875 18.269531 118.472656 C 16.660156 118.476562 15.054688 118.476562 13.445312 118.472656 C 12.855469 118.472656 12.265625 118.472656 11.675781 118.476562 C 10.867188 118.476562 10.0625 118.476562 9.253906 118.472656 L 8.554688 118.476562 C 6.71875 118.460938 4.957031 118.15625 3.347656 117.226562 C 2.234375 116.476562 1.492188 115.621094 0.796875 114.480469 C 0.15625 113.070312 -0.0625 111.738281 -0.0664062 110.199219 L -0.0664062 109.664062 C -0.0703125 109.070312 -0.0703125 108.476562 -0.0664062 107.886719 L -0.0703125 106.59375 C -0.0742188 105.414062 -0.0742188 104.234375 -0.0742188 103.054688 C -0.0742188 101.78125 -0.078125 100.507812 -0.078125 99.234375 C -0.0820312 96.742188 -0.0859375 94.246094 -0.0859375 91.753906 C -0.0859375 89.726562 -0.0859375 87.699219 -0.0898438 85.671875 C -0.09375 79.921875 -0.09375 74.171875 -0.09375 68.425781 L -0.09375 66.546875 C -0.09375 61.515625 -0.101562 56.488281 -0.109375 51.460938 C -0.113281 46.296875 -0.117188 41.132812 -0.117188 35.96875 C -0.117188 33.070312 -0.121094 30.171875 -0.125 27.273438 C -0.128906 24.804688 -0.132812 22.335938 -0.128906 19.867188 C -0.125 18.609375 -0.125 17.351562 -0.128906 16.09375 C -0.132812 14.9375 -0.132812 13.785156 -0.128906 12.632812 C -0.128906 12.214844 -0.128906 11.800781 -0.132812 11.382812 C -0.148438 9.03125 -0.0195312 6.9375 1.058594 4.800781 C 1.679688 3.820312 2.292969 3.167969 3.285156 2.558594 C 5.257812 1.53125 6.894531 1.332031 9.089844 1.335938 M 5.160156 5.027344 C 4.472656 5.605469 3.949219 6.167969 3.433594 6.90625 C 3.136719 7.800781 3.136719 8.476562 3.136719 9.421875 L 3.132812 9.957031 C 3.132812 10.550781 3.132812 11.148438 3.132812 11.742188 L 3.132812 13.035156 C 3.128906 14.21875 3.128906 15.402344 3.128906 16.589844 C 3.128906 17.863281 3.125 19.140625 3.125 20.417969 C 3.121094 23.210938 3.117188 26.003906 3.117188 28.796875 C 3.117188 30.539062 3.117188 32.285156 3.113281 34.027344 C 3.113281 38.851562 3.109375 43.675781 3.109375 48.496094 L 3.109375 53.195312 C 3.105469 58.242188 3.101562 63.285156 3.09375 68.332031 C 3.089844 73.507812 3.085938 78.683594 3.085938 83.859375 C 3.085938 86.765625 3.082031 89.671875 3.078125 92.582031 C 3.074219 95.054688 3.074219 97.53125 3.074219 100.007812 C 3.078125 101.269531 3.078125 102.535156 3.074219 103.796875 C 3.070312 104.953125 3.070312 106.109375 3.074219 107.265625 C 3.074219 107.683594 3.074219 108.101562 3.070312 108.523438 C 3.066406 109.089844 3.070312 109.660156 3.074219 110.226562 C 3.074219 110.542969 3.074219 110.859375 3.074219 111.183594 C 3.183594 112.15625 3.46875 112.792969 3.964844 113.628906 C 4.648438 114.378906 5.371094 114.886719 6.339844 115.210938 C 6.695312 115.234375 7.050781 115.246094 7.40625 115.246094 L 8.066406 115.25 L 8.789062 115.246094 L 9.558594 115.25 C 10.414062 115.253906 11.269531 115.253906 12.125 115.253906 L 13.960938 115.257812 C 15.625 115.261719 17.289062 115.261719 18.953125 115.265625 C 19.992188 115.265625 21.03125 115.265625 22.070312 115.265625 C 24.945312 115.269531 27.824219 115.273438 30.699219 115.273438 L 33.5 115.273438 C 36.507812 115.277344 39.511719 115.28125 42.519531 115.285156 C 45.605469 115.292969 48.691406 115.296875 51.777344 115.296875 C 53.511719 115.296875 55.242188 115.296875 56.976562 115.304688 C 58.605469 115.308594 60.234375 115.308594 61.863281 115.304688 C 62.460938 115.304688 63.0625 115.304688 63.660156 115.308594 C 64.476562 115.3125 65.292969 115.3125 66.109375 115.308594 L 66.828125 115.3125 C 67.886719 115.304688 68.589844 115.238281 69.585938 114.835938 C 70.492188 114.265625 70.933594 113.703125 71.566406 112.839844 C 71.863281 111.945312 71.863281 111.269531 71.863281 110.328125 L 71.867188 109.792969 C 71.867188 109.195312 71.867188 108.597656 71.867188 108.003906 L 71.867188 106.714844 C 71.871094 105.527344 71.871094 104.34375 71.871094 103.160156 C 71.871094 101.882812 71.875 100.605469 71.875 99.328125 C 71.878906 96.535156 71.882812 93.742188 71.882812 90.949219 C 71.882812 89.207031 71.882812 87.464844 71.886719 85.71875 C 71.886719 80.894531 71.890625 76.074219 71.890625 71.25 L 71.890625 66.550781 C 71.894531 61.503906 71.898438 56.460938 71.90625 51.414062 C 71.910156 46.238281 71.914062 41.0625 71.914062 35.886719 C 71.914062 32.980469 71.917969 30.074219 71.921875 27.164062 C 71.925781 24.691406 71.925781 22.214844 71.925781 19.738281 C 71.921875 18.476562 71.921875 17.214844 71.925781 15.949219 C 71.929688 14.792969 71.929688 13.636719 71.925781 12.480469 C 71.925781 12.0625 71.925781 11.644531 71.929688 11.226562 C 71.933594 10.65625 71.929688 10.089844 71.925781 9.519531 C 71.925781 9.203125 71.925781 8.886719 71.925781 8.5625 C 71.816406 7.589844 71.53125 6.953125 71.035156 6.117188 C 70.425781 5.464844 69.726562 4.9375 68.925781 4.535156 C 68.109375 4.507812 67.300781 4.496094 66.484375 4.496094 L 65.710938 4.492188 C 64.847656 4.492188 63.984375 4.488281 63.121094 4.488281 L 61.269531 4.484375 C 59.589844 4.480469 57.910156 4.476562 56.230469 4.472656 C 55.183594 4.472656 54.136719 4.472656 53.085938 4.46875 C 49.429688 4.464844 45.773438 4.460938 42.121094 4.457031 L 41.550781 4.457031 C 38.519531 4.453125 35.484375 4.449219 32.453125 4.441406 C 29.339844 4.429688 26.226562 4.425781 23.113281 4.425781 C 21.363281 4.425781 19.613281 4.421875 17.867188 4.417969 C 16.222656 4.410156 14.578125 4.410156 12.933594 4.410156 C 12.328125 4.410156 11.722656 4.410156 11.121094 4.40625 C 10.296875 4.402344 9.472656 4.402344 8.648438 4.40625 L 7.921875 4.398438 C 6.792969 4.410156 6.179688 4.480469 5.160156 5.027344 "/></g><path style=" stroke:none;fill-rule:nonzero;fill:#010101;fill-opacity:1;" d="M 17.453125 88.265625 C 17.632812 88.261719 17.8125 88.261719 17.996094 88.261719 C 18.589844 88.257812 19.183594 88.257812 19.777344 88.261719 L 21.0625 88.257812 C 22.222656 88.253906 23.382812 88.253906 24.542969 88.253906 C 25.511719 88.253906 26.484375 88.253906 27.453125 88.25 C 29.742188 88.25 32.03125 88.246094 34.320312 88.25 C 36.675781 88.25 39.035156 88.246094 41.394531 88.242188 C 43.421875 88.238281 45.449219 88.234375 47.476562 88.238281 C 48.683594 88.238281 49.894531 88.238281 51.105469 88.234375 C 52.242188 88.230469 53.378906 88.230469 54.519531 88.234375 C 54.933594 88.234375 55.351562 88.234375 55.765625 88.230469 C 59.9375 88.210938 59.9375 88.210938 61.792969 89.125 C 62.566406 89.625 62.566406 89.625 63.195312 90.195312 L 63.835938 90.746094 C 64.675781 91.796875 65.144531 92.832031 65.492188 94.128906 C 65.632812 95.28125 65.640625 96.414062 65.625 97.570312 L 65.636719 98.464844 C 65.628906 100.101562 65.464844 101.386719 64.734375 102.855469 C 63.988281 104.097656 63.144531 105.078125 61.894531 105.824219 C 60.578125 106.457031 59.605469 106.546875 58.140625 106.550781 L 57.589844 106.554688 C 56.984375 106.554688 56.375 106.558594 55.765625 106.558594 L 54.457031 106.5625 C 53.273438 106.566406 52.089844 106.566406 50.90625 106.566406 C 50.164062 106.570312 49.425781 106.570312 48.683594 106.570312 C 46.367188 106.574219 44.046875 106.578125 41.730469 106.578125 C 39.054688 106.578125 36.382812 106.582031 33.710938 106.589844 C 31.640625 106.597656 29.574219 106.601562 27.503906 106.601562 C 26.269531 106.601562 25.035156 106.601562 23.800781 106.605469 C 22.640625 106.609375 21.476562 106.613281 20.316406 106.609375 C 19.890625 106.609375 19.464844 106.609375 19.039062 106.613281 C 16.875 106.625 14.957031 106.597656 12.941406 105.722656 C 11.929688 105.097656 11.113281 104.324219 10.472656 103.320312 C 9.476562 101.375 9.441406 99.683594 9.425781 97.523438 L 9.402344 96.566406 C 9.390625 94.84375 9.496094 93.5 10.292969 91.957031 C 11.050781 90.671875 11.882812 89.941406 13.128906 89.152344 C 14.539062 88.46875 15.898438 88.265625 17.453125 88.265625 M 14.691406 91.808594 C 13.808594 92.414062 13.300781 92.992188 12.675781 93.867188 C 12.292969 95.046875 12.34375 96.261719 12.332031 97.488281 L 12.308594 98.183594 C 12.292969 99.601562 12.492188 100.617188 13.167969 101.871094 C 13.675781 102.589844 14.277344 102.957031 15.054688 103.351562 C 16.085938 103.617188 17.0625 103.648438 18.125 103.652344 L 18.648438 103.652344 C 19.222656 103.65625 19.796875 103.65625 20.375 103.65625 L 21.613281 103.65625 C 22.734375 103.660156 23.859375 103.660156 24.980469 103.660156 L 27.082031 103.660156 C 29.53125 103.664062 31.976562 103.664062 34.425781 103.664062 C 36.703125 103.664062 38.984375 103.667969 41.261719 103.671875 C 43.222656 103.675781 45.179688 103.675781 47.136719 103.675781 C 48.308594 103.675781 49.476562 103.675781 50.644531 103.679688 C 51.746094 103.683594 52.84375 103.683594 53.945312 103.679688 C 54.347656 103.679688 54.75 103.679688 55.152344 103.683594 C 55.707031 103.683594 56.257812 103.683594 56.808594 103.679688 L 57.742188 103.683594 C 58.71875 103.609375 59.550781 103.410156 60.472656 103.089844 C 61.421875 102.335938 61.960938 101.585938 62.421875 100.46875 C 62.726562 99.46875 62.710938 98.476562 62.703125 97.441406 L 62.71875 96.796875 C 62.71875 95.429688 62.472656 94.449219 61.824219 93.246094 C 61.382812 92.59375 60.871094 92.179688 60.210938 91.757812 C 59.34375 91.46875 58.699219 91.457031 57.789062 91.449219 L 56.753906 91.441406 L 55.617188 91.4375 L 54.421875 91.425781 C 53.335938 91.417969 52.253906 91.410156 51.167969 91.40625 C 50.261719 91.402344 49.355469 91.394531 48.449219 91.386719 C 46.308594 91.375 44.167969 91.359375 42.03125 91.347656 C 39.828125 91.335938 37.625 91.320312 35.421875 91.304688 C 33.527344 91.289062 31.632812 91.277344 29.738281 91.265625 C 28.609375 91.257812 27.480469 91.253906 26.351562 91.242188 C 25.285156 91.234375 24.222656 91.230469 23.15625 91.222656 C 22.765625 91.222656 22.378906 91.21875 21.988281 91.214844 C 18.289062 91.097656 18.289062 91.097656 14.691406 91.808594 "/></g></svg>