<svg xmlns="http://www.w3.org/2000/svg" xmlns:xlink="http://www.w3.org/1999/xlink" width="80" zoomAndPan="magnify" viewBox="0 0 60 60" height="80" preserveAspectRatio="xMidYMid meet" version="1.2"><g id="facd46394c"><path style=" stroke:none;fill-rule:nonzero;fill:#030104;fill-opacity:1;" d="M 44.253906 3.558594 C 46.222656 4.621094 48.015625 5.902344 49.6875 7.382812 L 49.988281 7.644531 C 51.246094 8.75 52.40625 9.925781 53.4375 11.25 L 53.714844 11.589844 C 56.945312 15.652344 58.945312 20.609375 59.734375 25.722656 C 60.429688 30.910156 59.828125 36.265625 57.890625 41.132812 C 56.578125 44.285156 54.878906 47.128906 52.617188 49.6875 L 52.355469 49.988281 C 51.25 51.246094 50.074219 52.40625 48.75 53.4375 L 48.410156 53.714844 C 44.347656 56.945312 39.390625 58.945312 34.277344 59.734375 C 29.089844 60.429688 23.734375 59.828125 18.867188 57.890625 C 15.714844 56.578125 12.871094 54.878906 10.3125 52.617188 L 10.011719 52.355469 C 8.753906 51.25 7.59375 50.074219 6.5625 48.75 L 6.285156 48.410156 C 3.054688 44.347656 1.054688 39.390625 0.265625 34.277344 C -0.429688 29.09375 0.171875 23.734375 2.109375 18.867188 C 3.421875 15.714844 5.121094 12.871094 7.382812 10.3125 L 7.644531 10.011719 C 8.75 8.753906 9.925781 7.59375 11.25 6.5625 L 11.589844 6.285156 C 15.652344 3.054688 20.609375 1.054688 25.722656 0.265625 C 32.117188 -0.59375 38.542969 0.582031 44.253906 3.558594 M 20.390625 9.609375 L 20.148438 9.726562 C 16.757812 11.398438 13.710938 13.964844 11.570312 17.09375 C 10.550781 18.617188 9.417969 20.375 8.90625 22.148438 L 8.90625 22.5 L 51.09375 22.5 C 50.648438 20.269531 49.191406 18.0625 47.8125 16.289062 L 47.667969 16.101562 C 46.335938 14.417969 44.785156 12.8125 43.007812 11.601562 L 42.765625 11.4375 C 39.578125 9.28125 35.859375 7.777344 31.992188 7.5 C 27.964844 7.335938 24.046875 7.796875 20.390625 9.609375 M 28.007812 26.71875 C 27.386719 27.152344 26.945312 27.601562 26.601562 28.277344 C 26.214844 29.132812 26.179688 29.886719 26.25 30.820312 C 26.398438 31.5 26.707031 32.019531 27.144531 32.554688 C 27.71875 33.164062 28.394531 33.488281 29.179688 33.75 C 30.066406 33.820312 30.902344 33.828125 31.722656 33.441406 C 32.339844 33.074219 32.855469 32.652344 33.238281 32.035156 C 33.664062 31.203125 33.792969 30.542969 33.78125 29.605469 C 33.738281 28.996094 33.59375 28.53125 33.28125 28.007812 C 32.847656 27.386719 32.398438 26.945312 31.722656 26.601562 C 30.523438 26.058594 29.15625 26.03125 28.007812 26.71875 M 7.5 30 C 7.324219 33.519531 8.289062 37.160156 9.886719 40.285156 C 10.917969 42.222656 12.242188 43.9375 13.71875 45.558594 L 13.886719 45.742188 C 16.28125 48.328125 19.644531 50.339844 22.992188 51.410156 C 24.066406 51.738281 25.136719 51.996094 26.25 52.148438 C 26.308594 47.765625 25.0625 43.4375 22.96875 39.609375 C 22.613281 38.996094 22.222656 38.417969 21.796875 37.851562 L 21.632812 37.632812 C 21.035156 36.835938 20.421875 36.070312 19.6875 35.390625 C 19.101562 34.804688 19.101562 34.804688 18.929688 34.625 C 18.414062 34.089844 17.867188 33.648438 17.261719 33.222656 L 16.980469 33.019531 C 14.613281 31.355469 11.921875 30.277344 9.023438 30 C 8.515625 29.984375 8.007812 29.984375 7.5 30 M 43.476562 32.695312 C 42.328125 33.484375 41.285156 34.394531 40.3125 35.390625 L 40.09375 35.59375 C 37.382812 38.164062 35.730469 41.78125 34.679688 45.304688 C 34.0625 47.527344 33.71875 49.835938 33.75 52.148438 C 37.492188 51.664062 40.875 49.988281 43.863281 47.738281 C 44.460938 47.28125 45.019531 46.785156 45.570312 46.273438 L 45.785156 46.074219 C 47.394531 44.554688 48.746094 42.71875 49.804688 40.78125 L 49.925781 40.558594 C 51.679688 37.316406 52.582031 33.683594 52.5 30 C 49.265625 29.84375 46.179688 30.976562 43.476562 32.695312 "/></g></svg>